HIERARCHY
ROOT root
{
	OFFSET 0.000000 0.000000 0.000000
	CHANNELS 6 Xposition Yposition Zposition Zrotation Yrotation Xrotation
	JOINT lhip
	{
		OFFSET 0.058581 -0.082280 -0.017664
		CHANNELS 3 Zrotation Yrotation Xrotation
		JOINT lknee
		{
			OFFSET 0.043451 -0.386469 0.008037
			CHANNELS 3 Zrotation Yrotation Xrotation
			JOINT lankle
			{
				OFFSET -0.014790 -0.426874 -0.037428
				CHANNELS 3 Zrotation Yrotation Xrotation
				JOINT ltoe
				{
					OFFSET 0.041054 -0.060286 0.122042
					CHANNELS 3 Zrotation Yrotation Xrotation
					End Site
					{
						OFFSET 0.000000 0.000000 0.000000
					}
				}
			}
		}
	}
	JOINT rhip
	{
		OFFSET -0.060310 -0.090513 -0.013543
		CHANNELS 3 Zrotation Yrotation Xrotation
		JOINT rknee
		{
			OFFSET -0.043257 -0.383688 -0.004843
			CHANNELS 3 Zrotation Yrotation Xrotation
			JOINT rankle
			{
				OFFSET 0.019056 -0.420046 -0.034562
				CHANNELS 3 Zrotation Yrotation Xrotation
				JOINT rtoe
				{
					OFFSET -0.034840 -0.062106 0.130323
					CHANNELS 3 Zrotation Yrotation Xrotation
					End Site
					{
						OFFSET 0.000000 0.000000 0.000000
					}
				}
			}
		}
	}
	JOINT lowerback
	{
		OFFSET 0.004439 0.124404 -0.038385
		CHANNELS 3 Zrotation Yrotation Xrotation
		JOINT upperback
		{
			OFFSET 0.004488 0.137956 0.026820
			CHANNELS 3 Zrotation Yrotation Xrotation
			JOINT chest
			{
				OFFSET -0.002265 0.056032 0.002855
				CHANNELS 3 Zrotation Yrotation Xrotation
				JOINT lowerneck
				{
					OFFSET -0.013390 0.211636 -0.033468
					CHANNELS 3 Zrotation Yrotation Xrotation
					JOINT upperneck
					{
						OFFSET 0.010113 0.088937 0.050410
						CHANNELS 3 Zrotation Yrotation Xrotation
						End Site
						{
							OFFSET 0.000000 0.000000 0.000000
						}
					}
				}
				JOINT lclavicle
				{
					OFFSET 0.071702 0.114000 -0.018898
					CHANNELS 3 Zrotation Yrotation Xrotation
					JOINT lshoulder
					{
						OFFSET 0.122921 0.045205 -0.019046
						CHANNELS 3 Zrotation Yrotation Xrotation
						JOINT lelbow
						{
							OFFSET 0.255332 -0.015649 -0.022946
							CHANNELS 3 Zrotation Yrotation Xrotation
							JOINT lwrist
							{
								OFFSET 0.265709 0.012698 -0.007375
								CHANNELS 3 Zrotation Yrotation Xrotation
								End Site
								{
									OFFSET 0.000000 0.000000 0.000000
								}
							}
						}
					}
				}
				JOINT rclavicle
				{
					OFFSET -0.082954 0.112472 -0.023707
					CHANNELS 3 Zrotation Yrotation Xrotation
					JOINT rshoulder
					{
						OFFSET -0.113228 0.046853 -0.008472
						CHANNELS 3 Zrotation Yrotation Xrotation
						JOINT relbow
						{
							OFFSET -0.260127 -0.014369 -0.031269
							CHANNELS 3 Zrotation Yrotation Xrotation
							JOINT rwrist
							{
								OFFSET -0.269108 0.006794 -0.006027
								CHANNELS 3 Zrotation Yrotation Xrotation
								End Site
								{
									OFFSET 0.000000 0.000000 0.000000
								}
							}
						}
					}
				}
			}
		}
	}
}
MOTION
Frames: 10
Frame Time: 0.033333
-0.233791 3.128064 1.033704 -178.115027 1.383415 86.675928 3.192787 3.023619 6.806798 -5.744155 -0.851826 7.031089 -2.957714 9.945828 6.185268 0.000000 -0.000000 0.000000 -3.364446 -5.537234 1.489599 3.934163 -5.207719 15.045998 7.032678 -4.125950 7.757188 0.000000 -0.000000 0.000000 1.982147 -0.195560 -1.189929 0.813704 -2.832298 7.677125 -1.027476 -1.219002 -3.423456 1.956765 1.016284 1.528224 2.616518 0.761207 11.983509 -30.189008 1.570482 6.396455 -54.904112 -4.806209 9.444275 10.804480 -25.746784 -0.602495 -4.510573 -8.433492 -2.652709 25.693424 2.081669 6.989968 55.445270 3.191556 11.971938 -11.634504 23.183907 -5.788104 4.237936 4.652468 -6.859203 
-0.234030 3.128070 1.034044 -178.119522 1.389049 86.701316 3.188217 2.969371 6.776607 -5.756209 -0.771627 6.980607 -2.973001 9.923365 6.381930 0.000000 -0.000000 0.000000 -3.386624 -5.480968 1.475232 3.989357 -5.281481 14.940929 7.205852 -4.345247 7.743842 0.000000 -0.000000 0.000000 1.966586 -0.219537 -1.194782 0.786652 -2.827723 7.611674 -0.983748 -1.266757 -3.250497 2.048618 1.112492 1.252569 2.463590 0.716980 12.296583 -30.117922 1.576833 6.336777 -55.032495 -4.939508 9.391720 10.775711 -25.604730 -0.650271 -4.723094 -8.497492 -2.376693 25.649665 2.062828 6.972020 55.501287 3.343865 11.912188 -11.627445 23.252083 -6.003500 4.221264 4.788627 -6.527485 
-0.234273 3.128101 1.034417 -178.086561 1.378992 86.718336 3.189583 2.983024 6.731536 -5.770994 -0.738362 6.959851 -2.985399 9.859304 6.668993 0.000000 -0.000000 0.000000 -3.390778 -5.461745 1.434791 3.969315 -5.337394 14.932374 7.076765 -4.303003 8.162168 0.000000 -0.000000 0.000000 1.930036 -0.252078 -1.210697 0.794950 -2.861443 7.659995 -0.993443 -1.280994 -3.234220 2.059307 1.130566 1.243734 2.459390 0.683339 12.350880 -30.120659 1.595998 6.339534 -55.036765 -5.006791 9.420674 10.762789 -25.628056 -0.652358 -4.829910 -8.550283 -2.333741 25.679858 1.990267 6.971436 55.517099 3.412548 11.919989 -11.651014 23.383014 -6.008504 4.279562 4.869338 -6.487849 
-0.234588 3.128216 1.034691 -178.014096 1.344083 86.729444 3.205443 2.974691 6.684002 -5.840986 -0.813956 6.975673 -3.054291 9.769562 6.960923 0.000000 -0.000000 0.000000 -3.408436 -5.403452 1.428314 3.934492 -5.399232 14.886933 7.008545 -4.327121 8.263964 0.000000 -0.000000 0.000000 1.873505 -0.302176 -1.217487 0.778794 -2.908478 7.692547 -1.004519 -1.292877 -3.209856 2.079859 1.133418 1.265727 2.459220 0.647712 12.409422 -30.106347 1.629595 6.344385 -55.056143 -5.075535 9.419722 10.778020 -25.720280 -0.648171 -4.905819 -8.598256 -2.339872 25.701180 1.931290 6.962075 55.569095 3.423390 11.924411 -11.639249 23.497688 -5.975082 4.392418 4.942717 -6.545350 
-0.234798 3.128282 1.034742 -177.945511 1.310715 86.722903 3.211550 2.942881 6.641969 -5.903972 -0.885286 7.042801 -3.091324 9.708496 7.098186 0.000000 -0.000000 0.000000 -3.458871 -5.412953 1.473124 3.934893 -5.438200 14.829790 7.004632 -4.314533 8.298671 0.000000 -0.000000 0.000000 1.848088 -0.324986 -1.225237 0.757277 -2.949191 7.721269 -1.023325 -1.302766 -3.191732 2.084030 1.134800 1.264293 2.452032 0.606595 12.473360 -30.101980 1.646405 6.345509 -55.050511 -5.135429 9.394602 10.768325 -25.756222 -0.635071 -4.921273 -8.634595 -2.357694 25.728811 1.891650 6.958312 55.591580 3.435548 11.912019 -11.626425 23.527922 -5.952057 4.414123 5.007829 -6.536446 
-0.235110 3.128250 1.034792 -177.847856 1.268646 86.696315 3.207401 2.895964 6.572589 -5.970025 -0.947936 7.161558 -3.132727 9.624619 7.279545 0.000000 -0.000000 0.000000 -3.555925 -5.463858 1.549169 3.965952 -5.460636 14.752805 6.992751 -4.262289 8.371223 0.000000 -0.000000 0.000000 1.861193 -0.334161 -1.204864 0.716672 -2.994441 7.740983 -1.067285 -1.327249 -3.166496 2.050223 1.129511 1.285531 2.441837 0.549742 12.554532 -30.130600 1.648298 6.343820 -55.019072 -5.244044 9.369617 10.765094 -25.738209 -0.621108 -4.937787 -8.675624 -2.362305 25.779003 1.856442 6.966601 55.613344 3.462676 11.903792 -11.619791 23.472020 -5.959220 4.418596 5.106248 -6.522612 
-0.235443 3.128101 1.034940 -177.801004 1.243502 86.659911 3.196312 2.870110 6.536713 -6.007361 -0.969183 7.240063 -3.157804 9.561471 7.427108 0.000000 -0.000000 0.000000 -3.631729 -5.526825 1.586197 3.989688 -5.490143 14.719728 6.945294 -4.215033 8.466186 0.000000 -0.000000 0.000000 1.917850 -0.320057 -1.169721 0.686805 -2.997046 7.759758 -1.105307 -1.325756 -3.154934 1.988375 1.141831 1.326853 2.405328 0.524408 12.629824 -30.177245 1.600176 6.348038 -55.019071 -5.352943 9.370169 10.793191 -25.660772 -0.651301 -4.939689 -8.685207 -2.357302 25.789731 1.831688 6.994975 55.638564 3.485010 11.892235 -11.601136 23.383091 -5.993964 4.452671 5.154628 -6.551627 
-0.235752 3.127907 1.035137 -177.788827 1.226875 86.628828 3.162509 2.845278 6.541807 -5.999970 -0.967804 7.257196 -3.179182 9.536055 7.523898 0.000000 -0.000000 0.000000 -3.665042 -5.573412 1.584845 3.975820 -5.573869 14.729950 6.902685 -4.226913 8.575200 0.000000 -0.000000 0.000000 1.964408 -0.312646 -1.171909 0.674281 -2.971493 7.804867 -1.123640 -1.334454 -3.126136 1.945971 1.184669 1.339028 2.354780 0.523267 12.732670 -30.199565 1.593622 6.330529 -55.069241 -5.453391 9.381779 10.837624 -25.615286 -0.691973 -4.988591 -8.726129 -2.345554 25.800225 1.858587 7.042267 55.633276 3.523857 11.909609 -11.587409 23.282414 -6.057603 4.506702 5.214587 -6.597463 
-0.235944 3.127560 1.035243 -177.768924 1.218805 86.654318 3.140777 2.809255 6.497657 -5.991468 -0.995428 7.257668 -3.212314 9.515839 7.546818 0.000000 -0.000000 0.000000 -3.656024 -5.587195 1.507632 3.941662 -5.639330 14.768479 6.895109 -4.267885 8.627066 0.000000 -0.000000 0.000000 1.967670 -0.307583 -1.174397 0.690263 -2.956399 7.827257 -1.118184 -1.318708 -3.121230 1.940518 1.207602 1.261256 2.339000 0.541921 12.874247 -30.203341 1.617179 6.315335 -55.110918 -5.506982 9.403249 10.835001 -25.696418 -0.700133 -4.988854 -8.769088 -2.353489 25.824013 1.845305 7.052916 55.592827 3.541695 11.909768 -11.566736 23.216115 -6.084064 4.522922 5.290462 -6.599657 
-0.236034 3.126824 1.035155 -177.707186 1.239913 86.726646 3.157071 2.759138 6.382526 -6.004675 -1.064194 7.286363 -3.190678 9.497667 7.409054 0.000000 -0.000000 0.000000 -3.668281 -5.606742 1.415756 3.981264 -5.633011 14.761928 6.955107 -4.229054 8.689940 0.000000 -0.000000 0.000000 1.972033 -0.310603 -1.130899 0.717884 -2.978754 7.802587 -1.100018 -1.338269 -3.129504 1.973439 1.226812 1.135792 2.356881 0.602168 12.902662 -30.212165 1.652233 6.295609 -55.113509 -5.505355 9.425979 10.805887 -25.874166 -0.665832 -4.931410 -8.813274 -2.397775 25.858715 1.820673 7.038243 55.535956 3.594505 11.906499 -11.557025 23.182768 -6.119953 4.540452 5.369009 -6.636898 
